<svg width="49" height="39" viewBox="0 0 49 39" fill="none" xmlns="http://www.w3.org/2000/svg">
<path d="M48.7022 29.7185C47.0431 23.5257 44.4116 17.5957 40.892 12.1212C39.1985 9.48797 38.1304 7.3125 34.7632 7.3125C31.801 7.3125 29.4 9.55348 29.4 12.3178V16.8964L26.8826 15.2268C26.7149 15.1155 26.5774 14.9647 26.4823 14.7878C26.3872 14.611 26.3375 14.4135 26.3375 14.2129V1.21875C26.3375 0.545391 25.7893 0 25.1125 0H23.8875C23.2107 0 22.6625 0.545391 22.6625 1.21875V14.2129C22.6625 14.6204 22.4581 15.0005 22.1174 15.2268L19.6 16.8964V12.3178C19.6 9.55348 17.199 7.3125 14.2368 7.3125C10.8696 7.3125 9.80153 9.48797 8.10797 12.1212C4.58839 17.5957 1.95694 23.5257 0.297828 29.7185C0.0995313 30.4566 0 31.2145 0 31.9754C0 36.6394 4.78363 40.007 9.58869 38.7258L14.1442 37.5108C17.3736 36.6501 19.6 33.895 19.6 30.7605V24.0962L13.0279 28.4555C12.961 28.4999 12.8859 28.5308 12.8071 28.5463C12.7282 28.5619 12.647 28.5618 12.5681 28.5461C12.4892 28.5304 12.4143 28.4994 12.3475 28.4548C12.2807 28.4103 12.2234 28.353 12.1788 28.2864L11.4989 27.2726C11.4543 27.206 11.4233 27.1314 11.4076 27.0529C11.392 26.9744 11.3921 26.8936 11.4079 26.8151C11.4237 26.7367 11.4549 26.6621 11.4996 26.5956C11.5444 26.5292 11.6019 26.4722 11.6689 26.4278L24.5 17.9179L37.3311 26.4278C37.398 26.4722 37.4555 26.5292 37.5003 26.5957C37.5451 26.6621 37.5763 26.7367 37.592 26.8152C37.6078 26.8936 37.6079 26.9744 37.5923 27.0529C37.5767 27.1314 37.5457 27.206 37.5011 27.2726L36.8212 28.2864C36.7766 28.353 36.7193 28.4102 36.6525 28.4548C36.5857 28.4993 36.5107 28.5303 36.4319 28.546C36.353 28.5617 36.2718 28.5618 36.193 28.5463C36.1141 28.5308 36.039 28.4999 35.9721 28.4555L29.4 24.0962V30.7605C29.4 33.895 31.6264 36.6493 34.8558 37.5108L39.4113 38.7258C44.2164 40.007 49 36.6394 49 31.9754C49 31.2145 48.9005 30.4566 48.7022 29.7185Z" fill="black"/>
</svg>
