<svg width="49" height="34" viewBox="0 0 49 34" fill="none" xmlns="http://www.w3.org/2000/svg">
<path d="M36.3037 2.29788C36.1798 1.79872 35.897 1.35335 35.498 1.02887C35.0989 0.704383 34.6052 0.518349 34.0913 0.498788C33.5774 0.479227 33.071 0.627198 32.6484 0.920414C32.2259 1.21363 31.91 1.63621 31.7485 2.1245L24.1818 24.8153L17.1707 9.03575C16.9799 8.61018 16.6681 8.25008 16.2743 8.00021C15.8804 7.75034 15.4219 7.62171 14.9555 7.63031C14.4892 7.63891 14.0356 7.78437 13.6513 8.0486C13.2669 8.31283 12.9687 8.68418 12.7936 9.1165L8.64213 19.5H0.75V24.25H8.64213C10.5968 24.25 12.3281 23.0768 13.0501 21.2646L15.114 16.1061L22.3269 32.3393C22.7116 33.2014 23.5643 33.75 24.5 33.75L24.614 33.7476C25.0925 33.7249 25.5528 33.5577 25.9344 33.2682C26.316 32.9786 26.6008 32.5802 26.7515 32.1255L33.6723 11.3633L35.9974 20.6519C36.2524 21.6805 36.8448 22.594 37.6801 23.2462C38.5153 23.8985 39.5451 24.2519 40.6049 24.25H48.25V19.5H40.6025L36.3037 2.29788Z" fill="white"/>
</svg>
