<?xml version="1.0" standalone="no"?>
<!DOCTYPE svg PUBLIC "-//W3C//DTD SVG 20010904//EN"
 "http://www.w3.org/TR/2001/REC-SVG-20010904/DTD/svg10.dtd">
<svg version="1.0" xmlns="http://www.w3.org/2000/svg"
 width="24.000000pt" height="24.000000pt" viewBox="0 0 24.000000 24.000000"
 preserveAspectRatio="xMidYMid meet">
<metadata>
Created by potrace 1.16, written by Peter Selinger 2001-2019
</metadata>
<g transform="translate(0.000000,24.000000) scale(0.100000,-0.100000)"
fill="#000000" stroke="none">
<path d="M107 212 c-10 -11 -17 -35 -17 -59 0 -27 -7 -49 -21 -64 l-21 -24 7
25 c11 44 10 55 -5 55 -11 0 -17 -16 -21 -60 -7 -72 2 -87 34 -57 17 16 36 22
68 22 36 0 51 5 69 25 18 19 21 28 12 37 -8 8 -19 4 -42 -16 -40 -33 -60 -34
-60 -1 0 21 5 25 28 25 36 0 92 54 74 72 -8 8 -20 3 -47 -21 -54 -47 -75 -39
-34 13 30 39 9 64 -24 28z"/>
</g>
</svg>
