<svg width="33" height="44" viewBox="0 0 33 44" fill="none" xmlns="http://www.w3.org/2000/svg">
<path d="M31.625 4.125C32.3812 4.125 33 3.50625 33 2.75V1.375C33 0.61875 32.3812 0 31.625 0H1.375C0.61875 0 0 0.61875 0 1.375V2.75C0 3.50625 0.61875 4.125 1.375 4.125H2.75V17.5914C1.01406 18.4594 0 19.4992 0 20.625C0 26.4 2.97344 31.4703 7.45938 34.418L5.62031 40.4508C5.07891 42.2125 6.40234 44 8.25 44H24.75C26.5977 44 27.9211 42.2125 27.3797 40.4508L25.5406 34.418C30.0266 31.4703 33 26.4 33 20.625C33 19.4992 31.9859 18.4594 30.25 17.5914V4.125H31.625ZM6.875 6.1875C6.875 5.80937 7.18437 5.5 7.5625 5.5H11.6875C12.0656 5.5 12.375 5.80937 12.375 6.1875V7.5625C12.375 7.94063 12.0656 8.25 11.6875 8.25H7.5625C7.18437 8.25 6.875 7.94063 6.875 7.5625V6.1875ZM16.5 23.375C9.87422 23.375 4.50313 22.1461 4.50313 20.625C4.50313 19.1039 9.87422 17.875 16.5 17.875C23.1258 17.875 28.4969 19.1039 28.4969 20.625C28.4969 22.1461 23.1258 23.375 16.5 23.375Z" fill="black"/>
</svg>
