<svg width="28" height="44" viewBox="0 0 28 44" fill="none" xmlns="http://www.w3.org/2000/svg">
<path d="M6 18.51V8C6 5.87827 6.84285 3.84344 8.34315 2.34315C9.84344 0.842855 11.8783 0 14 0C16.1217 0 18.1566 0.842855 19.6569 2.34315C21.1571 3.84344 22 5.87827 22 8V18.51C24.446 20.2132 26.2846 22.6525 27.2482 25.4729C28.2118 28.2934 28.2501 31.3478 27.3575 34.1915C26.465 37.0353 24.6882 39.5199 22.2857 41.2839C19.8833 43.0479 16.9805 43.9991 14 43.9991C11.0195 43.9991 8.11674 43.0479 5.71427 41.2839C3.3118 39.5199 1.535 37.0353 0.64246 34.1915C-0.250076 31.3478 -0.211755 28.2934 0.751846 25.4729C1.71545 22.6525 3.55403 20.2132 6 18.51ZM6 30C6 32.1217 6.84285 34.1566 8.34315 35.6569C9.84344 37.1571 11.8783 38 14 38C16.1217 38 18.1566 37.1571 19.6569 35.6569C21.1571 34.1566 22 32.1217 22 30H6Z" fill="white"/>
</svg>
